<?xml version="1.0" encoding="UTF-8"?>
<svg id="Layer_2" data-name="Layer 2" xmlns="http://www.w3.org/2000/svg" viewBox="0 0 491.94 144">
  <defs>
    <style>
      .cls-1 {
        fill: #231f20;
      }
    </style>
  </defs>
  <g id="Layer_1-2" data-name="Layer 1">
    <path class="cls-1" d="M2.72,144c-1.22-5.55-1.82-10.78-2.34-16.28-.13-1.76-.28-3.53-.37-5.27-.02-.86.46-1.54.88-2.24,1.69-3.93,4.38-11.64,5.98-15.72C16.6,78.53,30.9,40.35,40.6,14.49,45.72,9.44,50.93,4.42,56.72,0c1.45,7.13,2.09,14.33,2.61,21.51-9.68,25.83-24.03,64.07-33.75,90-1.48,4.11-4.51,11.68-5.84,15.78-.15.8-.23,1.62-.81,2.26-1.22,1.25-2.49,2.49-3.75,3.73-4.01,3.8-7.9,7.35-12.47,10.72h0Z"/>
    <path class="cls-1" d="M74.72,0c4.57,3.37,8.46,6.92,12.47,10.72,1.26,1.24,2.53,2.47,3.75,3.73.58.64.66,1.46.81,2.26,1.31,4.07,4.36,11.65,5.84,15.78,9.73,25.97,24.06,64.13,33.75,90-.53,7.17-1.17,14.38-2.61,21.51-5.78-4.42-11-9.43-16.11-14.49-9.69-25.82-24.02-64.07-33.75-90-1.59-4.07-4.28-11.77-5.98-15.72-.41-.7-.89-1.38-.88-2.24.1-1.75.24-3.51.37-5.27.52-5.5,1.12-10.73,2.34-16.28h0Z"/>
    <path class="cls-1" d="M146.72,144c-.54-5.85-.49-11.32-.32-17.04.09-1.83.16-3.67.28-5.48.09-.89.65-1.55,1.16-2.23.5-.69.8-1.48,1.19-2.22,4.57-9.15,19.93-39.85,24.75-49.5,0,0,0,8.94,0,8.94-5.93-11.85-21.26-42.52-27-54-.14-3.12-.38-7.93-.37-11.07-.03-3.73.02-7.51.31-11.41,6.35,4.06,12.2,8.77,17.94,13.53,7.01,13.92,22.12,44.3,29.24,58.47,0,0-2.24,4.47-2.24,4.47-5.55,11.24-20.61,40.91-25.81,51.78-.25.81-.44,1.66-1.09,2.27-1.38,1.18-2.81,2.35-4.22,3.52-4.48,3.56-8.82,6.88-13.82,9.96h0Z"/>
    <path class="cls-1" d="M254.72,0c.54,5.85.49,11.32.32,17.04-.09,1.83-.16,3.67-.28,5.48-.09.89-.65,1.55-1.16,2.23-.5.69-.8,1.48-1.19,2.22-4.57,9.15-19.93,39.85-24.75,49.5,0,0,0-8.94,0-8.94,5.93,11.85,21.26,42.52,27,54,.14,3.12.38,7.93.37,11.07.03,3.73-.02,7.51-.31,11.41-6.35-4.06-12.2-8.77-17.94-13.53-7.01-13.92-22.12-44.3-29.24-58.47,0,0,2.24-4.47,2.24-4.47,5.55-11.24,20.61-40.91,25.81-51.78.25-.81.44-1.66,1.09-2.27,1.38-1.18,2.81-2.35,4.22-3.52,4.48-3.56,8.82-6.88,13.82-9.96h0Z"/>
    <path class="cls-1" d="M38.72,99c1.94-3.53,4.28-6.98,6.75-10.11.28-.32.56-.11.84.04.28.13.56.05.84.07,1.06,0,3.97,0,5.06,0,9.73,0,24.05,0,33.75,0,2.25,3.04,4.5,5.99,6.75,10-2.25,4.01-4.5,6.96-6.75,10-9.68,0-24.03,0-33.75,0-1.1,0-3.99,0-5.06,0-.28.02-.56-.06-.84.07-.28.14-.56.35-.84.04-2.47-3.13-4.81-6.58-6.75-10.11h0Z"/>
    <path class="cls-1" d="M290.72,72c4.31,3.56,8.1,7.3,11.71,11.1.92.94,1.77,1.91,2.65,2.87.83.97,1.97,1.84,2.1,3.05.04,1.04.57,2.46.9,3.45.42,1.33,9.46,28.33,10.12,30.37,0,0-9.49-6.84-9.49-6.84h54s-9.49,6.84-9.49,6.84l9-27,1.12-3.37c.37-1.13.82-2.23.92-3.44.09-.59.41-1.11.88-1.58,4.95-5.43,9.81-10.51,15.56-15.44,1.64,7.39,2.48,14.37,3.18,21.69.09.66.04,1.26-.25,1.79-.64,1.04-.94,2.19-1.33,3.31l-1.12,3.38c-1.67,5.05-9.78,29.33-11.28,33.84-1.68-.01-57.36,0-61.21,0,0,0-7.21,0-7.21,0-2.71-8.12-10.23-30.7-12.97-38.9-.19-.56-.52-1.08-.79-1.61-.62-1.04-.23-2.42-.15-3.7.14-1.3.23-2.58.4-3.88.61-5.2,1.4-10.47,2.71-15.9h0Z"/>
    <path class="cls-1" d="M290.72,72c-1.62-6.79-2.47-13.13-3.12-19.79-.08-1.28-.47-2.66.15-3.7.27-.53.6-1.05.79-1.61,2.74-8.21,10.25-30.76,12.97-38.9,0,0,7.21,0,7.21,0,4-.01,59.37.01,61.21,0,1.44,4.36,9.65,28.93,11.28,33.84,0,0,1.13,3.37,1.13,3.37.38,1.12.68,2.27,1.33,3.31.28.53.34,1.14.25,1.79-.71,7.32-1.55,14.29-3.18,21.69-5.75-4.93-10.61-10.01-15.56-15.44-.47-.47-.79-.99-.88-1.58-.11-1.21-.56-2.31-.92-3.44l-1.12-3.37s-9-27-9-27l9.49,6.84h-54l9.49-6.84c-.71,2.18-9.65,28.9-10.13,30.38-.34.97-.82,2.41-.9,3.45-.13,1.21-1.27,2.08-2.1,3.05-.89.95-1.73,1.92-2.65,2.87-3.61,3.8-7.4,7.53-11.71,11.1h0Z"/>
    <g>
      <path class="cls-1" d="M416.72,72c1.94-3.53,4.28-6.98,6.75-10.11.28-.32.56-.11.84.04.28.13.56.05.84.07,1.06,0,3.97,0,5.06,0,9.73,0,24.05,0,33.75,0,2.25,3.04,4.5,5.99,6.75,10-2.25,4.01-4.5,6.96-6.75,10-9.68,0-24.03,0-33.75,0-1.1,0-3.99,0-5.06,0-.28.02-.56-.06-.84.07-.28.14-.56.35-.84.04-2.47-3.13-4.81-6.58-6.75-10.11h0Z"/>
      <path class="cls-1" d="M398.72,72c4.31,3.56,8.1,7.3,11.71,11.1.92.94,1.77,1.91,2.65,2.87.83.97,1.97,1.84,2.1,3.05.04,1.04.57,2.46.9,3.45.42,1.33,9.46,28.33,10.12,30.37,0,0-9.49-6.84-9.49-6.84h54l-9.49,6.84,9-27,1.12-3.37c.37-1.13.82-2.23.92-3.44.09-.59.41-1.11.88-1.58,4.95-5.43,9.81-10.51,15.56-15.44,1.64,7.39,2.48,14.37,3.18,21.69.09.66.04,1.26-.25,1.79-.64,1.04-.94,2.19-1.33,3.31l-1.12,3.38c-1.67,5.05-9.78,29.33-11.28,33.84-1.68-.01-57.36,0-61.21,0,0,0-7.21,0-7.21,0-2.71-8.12-10.23-30.7-12.97-38.9-.19-.56-.52-1.08-.79-1.61-.62-1.04-.23-2.42-.15-3.7.14-1.3.23-2.58.4-3.88.61-5.2,1.4-10.47,2.71-15.9h0Z"/>
      <path class="cls-1" d="M398.72,72c-1.62-6.79-2.47-13.13-3.12-19.79-.08-1.28-.47-2.66.15-3.7.27-.53.6-1.05.79-1.61,2.74-8.21,10.25-30.76,12.97-38.9,0,0,7.21,0,7.21,0,4-.01,59.37.01,61.21,0,1.44,4.36,9.65,28.93,11.28,33.84,0,0,1.12,3.37,1.12,3.37.38,1.12.68,2.27,1.33,3.31.28.53.34,1.14.25,1.79-.71,7.32-1.55,14.29-3.18,21.69-5.75-4.93-10.61-10.01-15.56-15.44-.47-.47-.79-.99-.88-1.58-.11-1.21-.56-2.31-.92-3.44l-1.12-3.37s-9-27-9-27l9.49,6.84h-54s9.49-6.84,9.49-6.84c-.71,2.18-9.65,28.9-10.13,30.38-.34.97-.82,2.41-.9,3.45-.13,1.21-1.27,2.08-2.1,3.05-.89.95-1.73,1.92-2.65,2.87-3.61,3.8-7.4,7.53-11.71,11.1h0Z"/>
    </g>
  </g>
</svg>